<svg width="606" height="96" viewBox="0 0 606 96" fill="none" xmlns="http://www.w3.org/2000/svg">
<g clip-path="url(#clip0_2120_639)">
<path d="M19.37 24.66L19.34 24.62C15.77 18.7 8.36999 19.41 5.48999 24.44C5.41999 24.57 5.33999 24.69 5.26999 24.82C5.26999 24.84 5.24999 24.86 5.23999 24.88C5.18999 24.98 5.13999 25.08 5.08999 25.19C5.08999 25.19 5.13999 25.08 5.23999 24.89C5.23999 24.87 5.25999 24.86 5.25999 24.84C3.10999 28.63 1.20999 32.88 0.449995 35.98C-1.96001 45.83 5.64999 61.84 12.46 63.96C15.28 52.78 19.12 41.44 22.71 32.73C21.6 29.72 20.48 26.98 19.36 24.68L19.37 24.66Z" fill="#F26522"></path>
<path d="M82.13 16.4C79.91 11.01 73.9 11.23 71.39 16.03C71.36 16.1 71.31 16.17 71.28 16.24C71.26 16.29 71.23 16.34 71.21 16.4C66.19 28.64 60 51.75 54.47 68.4C55.94 72.5 57.37 76.23 58.72 79.32C61.68 85.1 68.14 84.76 70.56 79.26C75.41 67.45 81.26 45.92 86.54 29.61C85.01 24.54 83.53 20 82.14 16.41L82.13 16.4Z" fill="#F26522"></path>
<path d="M135.57 9.18001C130.52 23.55 124.21 51.88 118.58 72.25C120.33 78.2 122.02 83.51 123.58 87.58C126.19 92.82 131.47 92.65 133.77 87.82C138.83 74.16 145.16 45.91 150.8 25.13C148.74 18.03 146.65 11.4 144.83 6.73001C142.87 2.54001 138.13 2.88001 135.57 9.18001Z" fill="#F26522"></path>
<path d="M165.47 7.19C163.74 3.06 160.32 0.08 156.7 0H145.35C142.47 0.11 139.21 0.44 137.6 3.8C136.43 6.33 136.08 7.68 135.57 9.18C138.13 2.88 142.87 2.54 144.83 6.73C148.62 16.44 153.58 34.67 157 47.96C172.76 47.96 169.85 20.69 168.42 15.98C167.4 12.6 166.41 9.64 165.46 7.18L165.47 7.19Z" fill="#FAA41A"></path>
<path d="M39.56 82.3C41.45 85.53 44.46 87.75 47.64 87.93H60.14C63.25 87.82 66.55 87.17 68.5 83.99C69.83 81.49 70.77 78.73 70.77 78.73C68.53 84.72 61.76 85.26 58.72 79.31C52.45 64.98 44.48 36.53 38.25 23.2C36.43 19.02 32.8 16 28.98 15.99H17.24C13.82 16.03 10.42 16.51 8.02999 20.05C6.85999 21.76 5.90999 23.61 5.42999 24.55C8.25999 19.41 15.75 18.65 19.35 24.62C19.35 24.62 19.36 24.64 19.38 24.66C26.35 39.02 33.16 69.78 39.57 82.3H39.56Z" fill="#FAA41A"></path>
<path d="M123.59 87.58C116.78 69.84 107.67 28.72 101.02 13.65C99.13 10.29 96.06 7.98999 92.86 7.98999H81.67C78.54 8.02999 75.19 8.24999 73.2 11.84C71.86 14.36 70.88 17.19 70.88 17.19C72.97 11.29 79.75 10.59 82.13 16.39C88.9 33.84 97.78 73.67 104.29 89.37C106.14 93.11 109.44 95.78 112.95 95.92H123.65C126.82 95.83 130.24 95.16 132.17 92C133.36 89.5 134.22 86.72 134.22 86.72C132.25 92.6 126.39 93.19 123.59 87.58Z" fill="#FAA41A"></path>
<path d="M263.95 27.05L249.33 71.73C249.16 72.25 248.68 72.59 248.14 72.59H238.23C237.69 72.59 237.21 72.24 237.04 71.72L228.11 44.24C227.74 43.09 226.11 43.08 225.73 44.23L216.5 71.73C216.33 72.24 215.85 72.58 215.31 72.58H205.46C204.92 72.58 204.44 72.23 204.27 71.72L189.59 27.04C189.32 26.23 189.93 25.4 190.78 25.4H199.46C200 25.4 200.49 25.75 200.65 26.27L209.85 54.93C210.22 56.08 211.85 56.09 212.23 54.95L221.85 26.26C222.02 25.75 222.5 25.41 223.04 25.41H231.34C231.88 25.41 232.37 25.76 232.53 26.28L241.85 55.19C242.22 56.34 243.85 56.35 244.23 55.19L253.73 26.27C253.9 25.76 254.38 25.41 254.92 25.41H262.73C263.58 25.41 264.19 26.24 263.92 27.05H263.95Z" fill="#F26522"></path>
<path d="M269.79 28.08C269.79 24.96 272.27 22.55 275.96 22.55C279.65 22.55 282.13 24.84 282.13 27.89C282.13 31.2 279.65 33.61 275.96 33.61C272.27 33.61 269.79 31.19 269.79 28.08ZM272.18 38.38H279.74C280.39 38.38 280.92 38.91 280.92 39.56V71.41C280.92 72.06 280.39 72.59 279.74 72.59H272.18C271.53 72.59 271 72.06 271 71.41V39.56C271 38.91 271.53 38.38 272.18 38.38Z" fill="#F26522"></path>
<path d="M325 26.59V71.41C325 72.06 324.47 72.59 323.82 72.59H316.71C316.06 72.59 315.53 72.06 315.53 71.41C315.53 70.44 314.42 69.87 313.65 70.46C311.34 72.23 308.38 73.1 304.84 73.1C295.17 73.1 287.73 66.23 287.73 55.48C287.73 44.73 295.17 37.87 304.84 37.87C308.08 37.87 310.95 38.67 313.23 40.32C314 40.88 315.08 40.31 315.08 39.35V26.59C315.08 25.94 315.61 25.41 316.26 25.41H323.82C324.47 25.41 325 25.94 325 26.59ZM315.27 55.49C315.27 49.58 311.45 46.02 306.56 46.02C301.67 46.02 297.78 49.58 297.78 55.49C297.78 61.4 301.6 64.97 306.56 64.97C311.52 64.97 315.27 61.41 315.27 55.49Z" fill="#F26522"></path>
<path d="M366.67 58.29H343.5C342.65 58.29 342.07 59.17 342.41 59.95C343.85 63.21 347.16 65.15 351.66 65.15C354.87 65.15 357.28 64.3 359.42 62.57C359.9 62.18 360.6 62.23 361.02 62.69L364.77 66.76C365.21 67.24 365.17 67.98 364.71 68.43C361.55 71.5 357.07 73.11 351.41 73.11C339.58 73.11 331.89 65.67 331.89 55.49C331.89 45.31 339.71 37.88 350.14 37.88C360.57 37.88 367.95 44.62 367.95 55.62C367.95 56.08 367.9 56.65 367.85 57.21C367.8 57.82 367.28 58.29 366.67 58.29ZM343.25 52.5H357.09C357.91 52.5 358.47 51.69 358.21 50.92C357.05 47.51 354.09 45.38 350.21 45.38C346.33 45.38 343.29 47.47 342.14 50.92C341.88 51.69 342.44 52.5 343.26 52.5H343.25Z" fill="#F26522"></path>
<path d="M396.07 39.09V45.76C396.07 46.44 395.49 46.98 394.81 46.94C394.49 46.92 394.18 46.91 393.84 46.91C388.37 46.91 384.75 49.9 384.75 56.45V71.42C384.75 72.07 384.22 72.6 383.57 72.6H376.01C375.36 72.6 374.83 72.07 374.83 71.42V39.57C374.83 38.92 375.36 38.39 376.01 38.39H383.12C383.77 38.39 384.3 38.92 384.3 39.57V39.96C384.3 40.94 385.44 41.51 386.2 40.89C388.37 39.11 391.28 38.11 394.79 37.91C395.48 37.87 396.06 38.41 396.06 39.09H396.07Z" fill="#F26522"></path>
<path d="M414.99 47.97C414.99 33.16 426.36 22.57 441.66 22.57C449.63 22.57 456.36 25.29 460.99 30.27C461.49 30.81 461.48 31.64 460.94 32.14L455.53 37.13C455.02 37.6 454.22 37.59 453.74 37.1C450.59 33.91 446.73 32.25 442.23 32.25C433.04 32.25 426.51 38.71 426.51 47.97C426.51 57.23 433.04 63.69 442.23 63.69C446.73 63.69 450.59 62.04 453.74 58.79C454.23 58.29 455.03 58.28 455.54 58.75L460.95 63.74C461.49 64.24 461.5 65.07 461.01 65.6C456.38 70.64 449.64 73.37 441.6 73.37C426.37 73.37 415 62.77 415 47.96L414.99 47.97Z" fill="#F26522"></path>
<path d="M466.54 28.09C466.54 24.97 469.02 22.56 472.71 22.56C476.4 22.56 478.88 24.85 478.88 27.9C478.88 31.21 476.4 33.62 472.71 33.62C469.02 33.62 466.54 31.2 466.54 28.09ZM468.93 38.4H476.49C477.14 38.4 477.67 38.93 477.67 39.58V71.43C477.67 72.08 477.14 72.61 476.49 72.61H468.93C468.28 72.61 467.75 72.08 467.75 71.43V39.58C467.75 38.93 468.28 38.4 468.93 38.4Z" fill="#F26522"></path>
<path d="M508.07 39.1V45.77C508.07 46.45 507.49 46.99 506.81 46.95C506.49 46.93 506.18 46.92 505.84 46.92C500.37 46.92 496.75 49.91 496.75 56.46V71.43C496.75 72.08 496.22 72.61 495.57 72.61H488.01C487.36 72.61 486.83 72.08 486.83 71.43V39.58C486.83 38.93 487.36 38.4 488.01 38.4H495.12C495.77 38.4 496.3 38.93 496.3 39.58V39.97C496.3 40.95 497.44 41.52 498.2 40.9C500.37 39.12 503.28 38.12 506.79 37.92C507.48 37.88 508.06 38.42 508.06 39.1H508.07Z" fill="#F26522"></path>
<path d="M511.62 55.5C511.62 45.2 519.57 37.89 530.7 37.89C537.41 37.89 542.79 40.6 545.49 45.52C545.81 46.1 545.6 46.83 545.01 47.15L539.29 50.22C538.76 50.5 538.11 50.35 537.77 49.86C535.95 47.23 533.45 46.04 530.63 46.04C525.61 46.04 521.66 49.54 521.66 55.51C521.66 61.48 525.6 64.99 530.63 64.99C533.45 64.99 535.95 63.85 537.77 61.18C538.11 60.68 538.77 60.52 539.3 60.81L545.01 63.92C545.59 64.24 545.8 64.97 545.47 65.55C542.76 70.36 537.39 73.12 530.69 73.12C519.56 73.12 511.61 65.81 511.61 55.5H511.62Z" fill="#F26522"></path>
<path d="M553.39 25.42H560.95C561.6 25.42 562.13 25.95 562.13 26.6V71.42C562.13 72.07 561.6 72.6 560.95 72.6H553.39C552.74 72.6 552.21 72.07 552.21 71.42V26.61C552.21 25.96 552.74 25.43 553.39 25.43V25.42Z" fill="#F26522"></path>
<path d="M603.81 58.3H580.64C579.79 58.3 579.21 59.18 579.55 59.96C580.99 63.22 584.3 65.16 588.8 65.16C592.01 65.16 594.42 64.31 596.56 62.58C597.04 62.19 597.74 62.24 598.16 62.7L601.91 66.77C602.35 67.25 602.31 67.99 601.85 68.44C598.69 71.51 594.21 73.12 588.55 73.12C576.72 73.12 569.03 65.68 569.03 55.5C569.03 45.32 576.85 37.89 587.28 37.89C597.71 37.89 605.09 44.63 605.09 55.63C605.09 56.09 605.04 56.66 604.99 57.22C604.94 57.83 604.42 58.3 603.81 58.3ZM580.38 52.51H594.22C595.04 52.51 595.6 51.7 595.34 50.93C594.18 47.52 591.22 45.39 587.34 45.39C583.46 45.39 580.42 47.48 579.27 50.93C579.01 51.7 579.57 52.51 580.39 52.51H580.38Z" fill="#F26522"></path>
</g>
<defs>
<clipPath id="clip0_2120_639">
<rect width="605.08" height="95.92" fill="white"></rect>
</clipPath>
</defs>
</svg>