<svg xmlns="http://www.w3.org/2000/svg" viewBox="-12 -64 300 285">
<path d="M31.6155 40.26L31.5755 40.19C25.7455 30.53 13.6555 31.68 8.9655 39.9C8.8455 40.11 8.7255 40.32 8.6055 40.53C8.5855 40.56 8.5755 40.59 8.5655 40.62C8.4855 40.79 8.3955 40.95 8.3255 41.12C8.3255 41.12 8.4155 40.94 8.5655 40.63C8.5755 40.6 8.5955 40.58 8.6055 40.55C5.0955 46.74 1.9855 53.68 0.7455 58.74C-3.1945 74.82 9.2355 100.96 20.3555 104.41C24.9555 86.15 31.2355 67.64 37.0855 53.42C35.2755 48.5 33.4555 44.04 31.6255 40.27L31.6155 40.26Z" fill="#F26522"/>
<path d="M134.066 26.77C130.446 17.97 120.625 18.33 116.525 26.16C116.465 26.28 116.406 26.38 116.346 26.51C116.306 26.59 116.265 26.68 116.225 26.76C108.035 46.74 97.9255 84.47 88.8955 111.65C91.2955 118.34 93.6255 124.44 95.8255 129.47C100.656 138.9 111.196 138.35 115.156 129.38C123.066 110.1 132.626 74.95 141.236 48.33C138.736 40.05 136.316 32.63 134.046 26.78L134.066 26.77Z" fill="#F26522"/>
<path d="M221.315 14.99C213.075 38.45 202.776 84.7 193.586 117.95C196.446 127.66 199.195 136.33 201.755 142.98C206.025 151.53 214.645 151.25 218.385 143.38C226.645 121.09 236.975 74.97 246.185 41.03C242.825 29.44 239.415 18.61 236.435 11C233.235 4.15999 225.505 4.70999 221.315 14.99Z" fill="#F26522"/>
<path d="M270.125 11.74C267.305 5 261.715 0.14 255.815 0H237.296C232.596 0.17 227.276 0.72 224.646 6.21C222.736 10.34 222.166 12.54 221.326 14.99C225.506 4.71 233.245 4.16 236.445 11C242.635 26.85 250.725 56.62 256.315 78.31C282.045 78.31 277.295 33.8 274.965 26.11C273.295 20.59 271.686 15.75 270.146 11.75L270.125 11.74Z" fill="#FAA41A"/>
<path d="M64.5855 134.36C67.6655 139.63 72.5855 143.25 77.7655 143.55H98.1655C103.245 143.36 108.635 142.31 111.805 137.13C113.965 133.05 115.515 128.54 115.515 128.54C111.855 138.31 100.815 139.2 95.8355 129.48C85.5955 106.09 72.5855 59.64 62.4255 37.87C59.4555 31.04 53.5155 26.11 47.2955 26.11H28.1355C22.5555 26.18 17.0055 26.96 13.0955 32.74C11.1855 35.54 9.62549 38.55 8.84549 40.09C13.4655 31.7 25.6955 30.46 31.5655 40.2C31.5655 40.2 31.5855 40.22 31.6055 40.27C42.9755 63.72 54.0955 113.93 64.5655 134.37L64.5855 134.36Z" fill="#FAA41A"/>
<path d="M201.755 142.98C190.635 114.02 175.765 46.88 164.915 22.3C161.825 16.81 156.815 13.06 151.585 13.06H133.326C128.216 13.13 122.745 13.49 119.495 19.34C117.315 23.46 115.706 28.08 115.706 28.08C119.116 18.44 130.186 17.31 134.076 26.78C145.126 55.26 159.615 120.29 170.245 145.91C173.265 152.02 178.655 156.37 184.385 156.6H201.855C207.025 156.45 212.616 155.36 215.776 150.21C217.726 146.12 219.116 141.59 219.116 141.59C215.896 151.18 206.325 152.15 201.755 142.99V142.98Z" fill="#FAA41A"/>
</svg>
